<svg id="Layer_1" data-name="Layer 1" xmlns="http://www.w3.org/2000/svg" viewBox="0 0 100 100"><defs><style>.cls-1{fill:#ff0092;}</style></defs><path class="cls-1" d="M50,60.65a35.26,35.26,0,0,1,9.47-17.07c.58-.59,1.19-1.14,1.8-1.67A35.29,35.29,0,0,0,52.2,20.59a3,3,0,0,0-4.4,0,35.29,35.29,0,0,0-9.07,21.32c.61.53,1.22,1.08,1.8,1.67A35.26,35.26,0,0,1,50,60.65Z"/><path class="cls-1" d="M98.52,66.91a35.32,35.32,0,0,0-21.31-9.07c-.54.61-1.09,1.22-1.68,1.8a35.19,35.19,0,0,1-17.06,9.47,35.27,35.27,0,0,1,17.06,9.47c.59.59,1.14,1.19,1.68,1.81a35.27,35.27,0,0,0,21.31-9.08A3,3,0,0,0,98.52,66.91Z"/><path class="cls-1" d="M41.53,69.11a35.19,35.19,0,0,1-17.06-9.47c-.59-.58-1.14-1.19-1.68-1.8A35.32,35.32,0,0,0,1.48,66.91a3,3,0,0,0,0,4.4,35.27,35.27,0,0,0,21.31,9.08c.54-.62,1.09-1.22,1.68-1.81A35.27,35.27,0,0,1,41.53,69.11Z"/><path class="cls-1" d="M44,63.12a35.28,35.28,0,0,1-5.37-18.76c0-.82,0-1.64.09-2.45a35.33,35.33,0,0,0-21.49-8.67,3,3,0,0,0-3.11,3.12,35.37,35.37,0,0,0,8.66,21.48c.82-.06,1.63-.09,2.46-.09A35.28,35.28,0,0,1,44,63.12Z"/><path class="cls-1" d="M56,63.12a35.28,35.28,0,0,1,18.76-5.37c.83,0,1.64,0,2.46.09a35.37,35.37,0,0,0,8.66-21.48,3,3,0,0,0-3.11-3.12,35.33,35.33,0,0,0-21.49,8.67c.06.81.09,1.63.09,2.45A35.28,35.28,0,0,1,56,63.12Z"/><path class="cls-1" d="M52.09,70h.16a35.42,35.42,0,0,0,6.22-.87,35.4,35.4,0,0,0-6.22-.86.85.85,0,0,0-.16,0l.11-.11a35.14,35.14,0,0,0,3.79-5,36.4,36.4,0,0,0-5,3.79l-.11.11v-.15A36.24,36.24,0,0,0,50,60.65a36.24,36.24,0,0,0-.87,6.22V67L49,66.91a36.4,36.4,0,0,0-5-3.79,35.14,35.14,0,0,0,3.79,5l.11.11a.85.85,0,0,0-.16,0,35.4,35.4,0,0,0-6.22.86,35.42,35.42,0,0,0,6.22.87h.16l-.11.11a35.62,35.62,0,0,0-3.79,5,34.87,34.87,0,0,0,5-3.79l.11-.11v.16A36.38,36.38,0,0,0,50,77.58a36.38,36.38,0,0,0,.87-6.22V71.2l.11.11a34.87,34.87,0,0,0,5,3.79,35.62,35.62,0,0,0-3.79-5Z"/></svg>